<svg width="31" height="31" viewBox="0 0 31 31" fill="none" xmlns="http://www.w3.org/2000/svg">
<rect x="0.748047" y="0.749237" width="29.3731" height="29.3731" rx="2.93731" fill="white"/>
<g clip-path="url(#clip0_128_57308)">
<path d="M19.802 12.0426C19.2754 11.8315 19.1232 11.7039 19.1232 11.4733C19.1232 11.2888 19.2629 11.0733 19.6569 11.0733C20.0054 11.0733 20.2726 11.2107 20.275 11.2119C20.3031 11.2269 20.3346 11.2349 20.3659 11.2349C20.4421 11.2349 20.5096 11.1887 20.5376 11.1173L20.6333 10.8726C20.6666 10.7835 20.616 10.7058 20.5516 10.6779C20.337 10.5845 19.9177 10.5122 19.9135 10.5115C19.9067 10.5103 19.8832 10.5053 19.8832 10.4778L19.8819 10.1228C19.8819 10.016 19.7926 9.92892 19.683 9.92892H19.5113C19.4018 9.92892 19.3126 10.0159 19.3126 10.1229L19.3131 10.4961C19.3131 10.5247 19.2821 10.5371 19.2707 10.5398C18.7415 10.6658 18.4107 11.0535 18.4107 11.5426C18.4107 12.1522 18.9146 12.4277 19.4588 12.6345C19.8937 12.8053 20.0712 12.9784 20.0712 13.2324C20.0712 13.5088 19.8199 13.7018 19.4598 13.7018C19.1524 13.7018 18.7364 13.5069 18.7322 13.505C18.7056 13.4923 18.6774 13.486 18.6484 13.486C18.5692 13.486 18.5003 13.5339 18.4727 13.608L18.3813 13.8555C18.3488 13.9479 18.3988 14.0229 18.4629 14.0563C18.7184 14.1894 19.2128 14.2673 19.2348 14.2708C19.2407 14.2716 19.2708 14.2822 19.2708 14.3097V14.6813C19.2708 14.7882 19.3601 14.8752 19.4697 14.8752H19.6472C19.7568 14.8752 19.8461 14.7882 19.8461 14.6813V14.2902C19.8461 14.2537 19.8731 14.2505 19.8786 14.2491C20.4425 14.1224 20.7898 13.7099 20.7898 13.1919C20.7896 12.6599 20.4942 12.3161 19.802 12.0426Z" fill="#343B71"/>
<path d="M19.5821 7.74173C17.0083 7.74173 14.9219 9.82826 14.9219 12.402C14.9219 14.9758 17.0083 17.0623 19.5821 17.0623C22.1559 17.0623 24.2423 14.9758 24.2423 12.402C24.2423 9.82826 22.1559 7.74173 19.5821 7.74173ZM19.5821 15.9823C17.6047 15.9823 16.0019 14.3793 16.0019 12.402C16.0019 10.4248 17.6047 8.82183 19.5821 8.82183C21.5594 8.82183 23.1622 10.4248 23.1622 12.402C23.1622 14.3793 21.5594 15.9823 19.5821 15.9823Z" fill="#343B71"/>
<path d="M23.2961 19.3207C22.3051 19.8676 20.9421 20.3733 19.5829 20.5865C18.3735 20.7762 16.0984 20.3188 16.0984 19.7786C16.0984 19.5739 18.0938 20.283 19.3008 19.961C20.2264 19.714 20.095 18.8482 19.5915 18.734C19.091 18.6204 16.1587 17.5462 14.9062 17.5091C14.3162 17.4917 12.8595 17.7143 12.1546 17.8291C11.9132 17.8684 11.7618 17.8641 11.7467 18.0952C11.6765 19.1691 11.5383 21.3653 11.4629 22.5124C11.4614 22.5367 11.495 22.8626 11.764 22.6332C12.0584 22.3822 12.4714 22.1039 12.8533 22.1905C13.4525 22.3265 18.6365 23.2762 19.3515 23.11C20.3744 22.8722 23.2701 21.1561 23.8253 20.6227C24.6859 19.7958 24.0169 18.9228 23.2961 19.3207Z" fill="#343B71"/>
<path d="M10.3161 17.7873L7.6004 17.6535C7.39073 17.6431 7.17659 17.8011 7.12448 18.0045L6.63068 22.4877C6.57862 22.6911 6.70767 22.8641 6.91744 22.8722L9.92715 22.8719C10.137 22.88 10.3217 22.7154 10.3377 22.5061L10.6683 18.1866C10.6843 17.9773 10.5258 17.7976 10.3161 17.7873ZM8.71736 22.278C8.30263 22.278 7.96649 21.9418 7.96649 21.5271C7.96649 21.1124 8.30268 20.7763 8.71736 20.7763C9.13203 20.7763 9.46822 21.1125 9.46822 21.5271C9.46822 21.9419 9.13208 22.278 8.71736 22.278Z" fill="#343B71"/>
</g>
<rect x="6" y="8.99997" width="18" height="13" fill="#2CD51C"/>
<path d="M20 6.99997H10C7 6.99997 5 8.49997 5 12V19C5 22.5 7 24 10 24H20C23 24 25 22.5 25 19V12C25 8.49997 23 6.99997 20 6.99997ZM11 21.25H8C7.59 21.25 7.25 20.91 7.25 20.5C7.25 20.09 7.59 19.75 8 19.75H11C11.41 19.75 11.75 20.09 11.75 20.5C11.75 20.91 11.41 21.25 11 21.25ZM15 18.5C13.34 18.5 12 17.16 12 15.5C12 13.84 13.34 12.5 15 12.5C16.66 12.5 18 13.84 18 15.5C18 17.16 16.66 18.5 15 18.5ZM22 11.25H19C18.59 11.25 18.25 10.91 18.25 10.5C18.25 10.09 18.59 9.74997 19 9.74997H22C22.41 9.74997 22.75 10.09 22.75 10.5C22.75 10.91 22.41 11.25 22 11.25Z" fill="#0D9901"/>
<defs>
<clipPath id="clip0_128_57308">
<rect width="17.6239" height="17.6239" fill="white" transform="translate(6.62305 6.62381)"/>
</clipPath>
</defs>
</svg>
