<svg width="22" height="28" viewBox="0 0 22 28" fill="none" xmlns="http://www.w3.org/2000/svg">
<path d="M3.74 20.13C4.09009 20.0279 4.4664 20.069 4.78614 20.2444C5.10589 20.4197 5.34289 20.7149 5.445 21.065C5.54711 21.4151 5.50596 21.7914 5.33062 22.1111C5.15527 22.4309 4.86009 22.6679 4.51 22.77C3.8225 22.9707 3.3275 23.1825 3.00988 23.375C3.33713 23.5716 3.85412 23.7916 4.57187 23.9965C6.16 24.4502 8.43287 24.75 11 24.75C13.5671 24.75 15.84 24.4502 17.4281 23.9965C18.1472 23.7916 18.6629 23.5716 18.9901 23.375C18.6739 23.1825 18.1789 22.9707 17.4914 22.77C17.1468 22.6634 16.8579 22.4257 16.687 22.108C16.516 21.7904 16.4768 21.4184 16.5776 21.0721C16.6784 20.7258 16.9113 20.4329 17.226 20.2567C17.5407 20.0805 17.9121 20.035 18.26 20.13C19.1785 20.3981 20.02 20.7419 20.6663 21.1833C21.2644 21.5944 22 22.3108 22 23.375C22 24.4516 21.2465 25.1735 20.6388 25.5846C19.9815 26.0274 19.1221 26.3725 18.183 26.6406C16.2883 27.1838 13.75 27.5 11 27.5C8.25 27.5 5.71175 27.1838 3.817 26.6406C2.87788 26.3725 2.0185 26.0274 1.36125 25.5846C0.7535 25.1721 0 24.4516 0 23.375C0 22.3108 0.735625 21.5944 1.33375 21.1833C1.98 20.7419 2.8215 20.3981 3.74 20.13ZM11 0C13.735 0 16.3581 1.08649 18.292 3.02046C20.226 4.95443 21.3125 7.57746 21.3125 10.3125C21.3125 13.8435 19.3875 16.7145 17.3937 18.755C16.6012 19.5579 15.7495 20.3002 14.8459 20.9756C14.0291 21.5889 12.1619 22.7384 12.1619 22.7384C11.8077 22.9397 11.4074 23.0455 11 23.0455C10.5926 23.0455 10.1923 22.9397 9.83812 22.7384C8.91105 22.2017 8.01497 21.6132 7.15413 20.9756C6.25012 20.3006 5.3984 19.5583 4.60625 18.755C2.6125 16.7145 0.6875 13.8435 0.6875 10.3125C0.6875 7.57746 1.77399 4.95443 3.70796 3.02046C5.64193 1.08649 8.26495 0 11 0ZM11 7.5625C10.2707 7.5625 9.57118 7.85223 9.05546 8.36796C8.53973 8.88368 8.25 9.58315 8.25 10.3125C8.25 11.0418 8.53973 11.7413 9.05546 12.257C9.57118 12.7728 10.2707 13.0625 11 13.0625C11.7293 13.0625 12.4288 12.7728 12.9445 12.257C13.4603 11.7413 13.75 11.0418 13.75 10.3125C13.75 9.58315 13.4603 8.88368 12.9445 8.36796C12.4288 7.85223 11.7293 7.5625 11 7.5625Z" fill="#F00D42"/>
</svg>
