<svg width="13" height="14" viewBox="0 0 13 14" fill="none" xmlns="http://www.w3.org/2000/svg">
<path d="M10.5641 1.4719L7.07072 0.162767C6.48966 -0.0542555 5.53756 -0.0542555 4.9565 0.162767L1.46315 1.4719C0.658067 1.77293 0 2.72503 0 3.57911V8.78064C0 9.60673 0.546055 10.6918 1.21112 11.1889L4.22143 13.4361C5.20853 14.1782 6.8327 14.1782 7.8198 13.4361L10.8301 11.1889C11.4952 10.6918 12.0412 9.60673 12.0412 8.78064V3.57911C12.0272 2.72503 11.3692 1.77293 10.5641 1.4719ZM5.96461 3.51611C6.79069 3.51611 7.46276 4.18818 7.46276 5.01426C7.46276 5.82634 6.8257 6.47741 6.02061 6.50541H6.00661H5.99261C5.97861 6.50541 5.96461 6.50541 5.95061 6.50541C5.11052 6.47741 4.48046 5.82634 4.48046 5.01426C4.47346 4.18818 5.14552 3.51611 5.96461 3.51611ZM7.54677 10.0478C7.11972 10.3278 6.56667 10.4748 6.01361 10.4748C5.46056 10.4748 4.9005 10.3348 4.48046 10.0478C4.08142 9.78175 3.86439 9.41771 3.85739 9.01867C3.85739 8.62663 4.08142 8.24859 4.48046 7.98256C5.32754 7.42251 6.70668 7.42251 7.55377 7.98256C7.95281 8.24859 8.17683 8.61263 8.17683 9.01167C8.16983 9.40371 7.94581 9.78175 7.54677 10.0478Z" fill="#FFBC07"/>
</svg>
